:SAMPLES-PER-SECOND 24
:FULLY-SPECIFIED
:DEGREES
179
root  -0.105913 38.851 25.4009 -177.768 -51.6927 -171.605
RightUpLeg  -19.9158 32.8659 -5.70929
RightLeg  20.0988 2.74518 0.927363
RightFoot  -15.1066 -0.0647453 1.12711
RightToes  -2.08645e-008 3.77894e-005 6.81332e-007
Spine  10.8536 3.70512 -2.79612
Spine1  4.00343 4.2568 -2.33279
HEad  -22.9846 4.57724 5.72775
LeftShoulder1  6.97309 -12.9855 -36.2383
LeftArm  17.4785 20.7155 -14.5036
LeftForeArm  125.183 -78.218 -122.645
LeftHand  -0.240439 -3.64468 3.34876
RightShoulder  3.86494 6.72576 31.8924
RightArm  9.09325 -15.2297 30.0238
RightForeArm  42.9494 70.9496 28.8586
RightHand  -0.68728 8.20512 -6.2298
LeftUpLeg  -24.8627 -33.5669 24.3236
LeftLeg  30.6435 -15.4317 -9.33513
LeftFoot  -22.788 -1.07844 -12.0807
LeftToes  1.24767e-006 1.47042e-008 1.32732e-009
180
root  -0.658807 38.6177 26.4912 -177.996 -43.4897 -169.819
RightUpLeg  -22.9172 35.7716 -7.88354
RightLeg  18.7673 7.64228 2.65215
RightFoot  -14.9803 0.0192357 3.80095
RightToes  -2.08645e-008 3.77894e-005 6.81332e-007
Spine  12.989 3.28024 -7.79158
Spine1  3.86001 2.48526 1.76361
HEad  -24.7669 -13.5344 12.4785
LeftShoulder1  6.7714 -12.8613 -35.3487
LeftArm  18.2219 20.8155 -11.7287
LeftForeArm  109.927 -79.4084 -108.872
LeftHand  -0.244729 -3.92737 3.3204
RightShoulder  3.94019 6.76339 32.4905
RightArm  8.25678 -16.8622 29.8924
RightForeArm  43.8457 71.7822 30.5427
RightHand  -0.620787 7.77886 -5.82242
LeftUpLeg  -22.4487 -29.6628 23.051
LeftLeg  31.5241 -14.9115 -9.34499
LeftFoot  -22.9223 -0.825574 -9.47703
LeftToes  1.24767e-006 1.47042e-008 1.32732e-009
181
root  -1.24248 38.4411 27.7986 -177.584 -37.4922 -167.529
RightUpLeg  -23.8584 30.1 -6.93188
RightLeg  14.546 19.9851 2.8282
RightFoot  -13.7123 0.0914267 9.13829
RightToes  -2.08645e-008 3.77894e-005 6.81332e-007
Spine  16.0935 2.61573 -13.9565
Spine1  3.52828 -0.504466 8.4841
HEad  -29.1482 -26.6327 18.1446
LeftShoulder1  6.57467 -12.7775 -34.3672
LeftArm  17.9065 19.0623 -12.1764
LeftForeArm  78.1439 -79.6885 -77.0408
LeftHand  -0.350178 -4.31173 4.47013
RightShoulder  3.93703 6.76265 32.4622
RightArm  9.06924 -17.2794 28.6217
RightForeArm  41.6723 71.0114 29.2172
RightHand  -0.723757 7.5949 -6.81247
LeftUpLeg  -22.1803 -24.8528 22.1472
LeftLeg  31.3786 -9.92948 -6.13272
LeftFoot  -24.5548 -0.510337 -5.70778
LeftToes  1.24767e-006 1.47042e-008 1.32732e-009
182
root  -1.85566 38.3112 29.262 -176.612 -33.7621 -164.426
RightUpLeg  -24.7732 18.0346 -2.89611
RightLeg  10.3088 26.5432 0.331298
RightFoot  -13.3466 0.138354 13.0515
RightToes  -2.08645e-008 3.77894e-005 6.81332e-007
Spine  20.411 2.59547 -18.7504
Spine1  2.43104 -3.49833 17.283
HEad  -34.6238 -33.1811 23.2166
LeftShoulder1  6.52653 -12.9671 -33.6171
LeftArm  17.9121 12.5649 -13.4435
LeftForeArm  48.3249 -76.498 -47.8125
LeftHand  -0.520471 -4.13919 6.61603
RightShoulder  3.94111 6.7943 32.3833
RightArm  8.26681 -17.421 27.3973
RightForeArm  36.7468 68.4877 25.3939
RightHand  -0.788764 7.84026 -7.26755
LeftUpLeg  -26.0727 -21.4744 23.5202
LeftLeg  33.7749 -6.94104 -4.61207
LeftFoot  -25.439 -0.357227 -4.12287
LeftToes  1.24767e-006 1.47042e-008 1.32732e-009
183
root  -2.61602 38.2661 30.7253 -175.392 -28.6234 -160.794
RightUpLeg  -29.0892 15.1149 -2.4936
RightLeg  11.0556 12.7328 -0.22318
RightFoot  -14.6922 0.215616 10.8354
RightToes  -2.08645e-008 3.77894e-005 6.81332e-007
Spine  24.0835 3.49492 -19.287
Spine1  1.58736 -4.19147 22.193
HEad  -39.0837 -35.3351 27.105
LeftShoulder1  6.52245 -13.2481 -32.9286
LeftArm  19.0603 0.701196 -13.0622
LeftForeArm  33.1641 -72.0762 -33.5828
LeftHand  -0.713755 -4.2042 8.90508
RightShoulder  4.07715 6.91769 33.2367
RightArm  5.23115 -17.4803 27.0502
RightForeArm  32.6455 64.1267 20.3254
RightHand  -0.874481 8.28504 -7.78317
LeftUpLeg  -30.1034 -17.0282 25.5322
LeftLeg  37.1818 -5.5857 -4.15336
LeftFoot  -24.3455 -0.328273 -4.1578
LeftToes  1.24767e-006 1.47042e-008 1.32732e-009
